<svg width="167" height="76" viewBox="0 0 167 76" fill="none" xmlns="http://www.w3.org/2000/svg">
<path d="M26.6591 75.0227C21.2727 75.0227 16.6364 73.9318 12.75 71.75C8.88636 69.5455 5.90909 66.4318 3.81818 62.4091C1.72727 58.3636 0.681818 53.5795 0.681818 48.0568C0.681818 42.6705 1.72727 37.9432 3.81818 33.875C5.90909 29.8068 8.85227 26.6364 12.6477 24.3636C16.4659 22.0909 20.9432 20.9545 26.0795 20.9545C29.5341 20.9545 32.75 21.5114 35.7273 22.625C38.7273 23.7159 41.3409 25.3636 43.5682 27.5682C45.8182 29.7727 47.5682 32.5455 48.8182 35.8864C50.0682 39.2045 50.6932 43.0909 50.6932 47.5455V51.5341H6.47727V42.5341H37.0227C37.0227 40.4432 36.5682 38.5909 35.6591 36.9773C34.75 35.3636 33.4886 34.1023 31.875 33.1932C30.2841 32.2614 28.4318 31.7955 26.3182 31.7955C24.1136 31.7955 22.1591 32.3068 20.4545 33.3295C18.7727 34.3295 17.4545 35.6818 16.5 37.3864C15.5455 39.0682 15.0568 40.9432 15.0341 43.0114V51.5682C15.0341 54.1591 15.5114 56.3977 16.4659 58.2841C17.4432 60.1705 18.8182 61.625 20.5909 62.6477C22.3636 63.6705 24.4659 64.1818 26.8977 64.1818C28.5114 64.1818 29.9886 63.9545 31.3295 63.5C32.6705 63.0455 33.8182 62.3636 34.7727 61.4545C35.7273 60.5455 36.4545 59.4318 36.9545 58.1136L50.3864 59C49.7045 62.2273 48.3068 65.0455 46.1932 67.4545C44.1023 69.8409 41.3977 71.7045 38.0795 73.0455C34.7841 74.3636 30.9773 75.0227 26.6591 75.0227Z" fill="#F02D2D"/>
<path d="M51.8032 74V4.18182H66.3259V30.4318H66.7691C67.4055 29.0227 68.3259 27.5909 69.5305 26.1364C70.7577 24.6591 72.3486 23.4318 74.3032 22.4545C76.2805 21.4545 78.735 20.9545 81.6668 20.9545C85.485 20.9545 89.0077 21.9545 92.235 23.9545C95.4623 25.9318 98.0418 28.9205 99.9736 32.9205C101.905 36.8977 102.871 41.8864 102.871 47.8864C102.871 53.7273 101.928 58.6591 100.042 62.6818C98.1782 66.6818 95.6327 69.7159 92.4055 71.7841C89.2009 73.8295 85.61 74.8523 81.6327 74.8523C78.8145 74.8523 76.4168 74.3864 74.4395 73.4545C72.485 72.5227 70.8827 71.3523 69.6327 69.9432C68.3827 68.5114 67.4282 67.0682 66.7691 65.6136H66.1214V74H51.8032ZM66.0191 47.8182C66.0191 50.9318 66.4509 53.6477 67.3145 55.9659C68.1782 58.2841 69.4282 60.0909 71.0645 61.3864C72.7009 62.6591 74.6895 63.2955 77.0305 63.2955C79.3941 63.2955 81.3941 62.6477 83.0305 61.3523C84.6668 60.0341 85.9055 58.2159 86.7464 55.8977C87.61 53.5568 88.0418 50.8636 88.0418 47.8182C88.0418 44.7955 87.6214 42.1364 86.7805 39.8409C85.9395 37.5455 84.7009 35.75 83.0645 34.4545C81.4282 33.1591 79.4168 32.5114 77.0305 32.5114C74.6668 32.5114 72.6668 33.1364 71.0305 34.3864C69.4168 35.6364 68.1782 37.4091 67.3145 39.7045C66.4509 42 66.0191 44.7045 66.0191 47.8182Z" fill="#0968F6"/>
<path d="M118.854 74.9886C115.513 74.9886 112.535 74.4091 109.922 73.25C107.308 72.0682 105.24 70.3295 103.717 68.0341C102.217 65.7159 101.467 62.8295 101.467 59.375C101.467 56.4659 102.001 54.0227 103.069 52.0455C104.138 50.0682 105.592 48.4773 107.433 47.2727C109.274 46.0682 111.365 45.1591 113.706 44.5455C116.069 43.9318 118.547 43.5 121.138 43.25C124.183 42.9318 126.638 42.6364 128.501 42.3636C130.365 42.0682 131.717 41.6364 132.558 41.0682C133.399 40.5 133.819 39.6591 133.819 38.5455V38.3409C133.819 36.1818 133.138 34.5114 131.774 33.3295C130.433 32.1477 128.524 31.5568 126.047 31.5568C123.433 31.5568 121.354 32.1364 119.808 33.2955C118.263 34.4318 117.24 35.8636 116.74 37.5909L103.308 36.5C103.99 33.3182 105.331 30.5682 107.331 28.25C109.331 25.9091 111.91 24.1136 115.069 22.8636C118.251 21.5909 121.933 20.9545 126.115 20.9545C129.024 20.9545 131.808 21.2955 134.467 21.9773C137.149 22.6591 139.524 23.7159 141.592 25.1477C143.683 26.5795 145.331 28.4205 146.535 30.6705C147.74 32.8977 148.342 35.5682 148.342 38.6818V74H134.569V66.7386H134.16C133.319 68.375 132.194 69.8182 130.785 71.0682C129.376 72.2955 127.683 73.2614 125.706 73.9659C123.729 74.6477 121.444 74.9886 118.854 74.9886ZM123.013 64.9659C125.149 64.9659 127.035 64.5455 128.672 63.7045C130.308 62.8409 131.592 61.6818 132.524 60.2273C133.456 58.7727 133.922 57.125 133.922 55.2841V49.7273C133.467 50.0227 132.842 50.2955 132.047 50.5455C131.274 50.7727 130.399 50.9886 129.422 51.1932C128.444 51.375 127.467 51.5455 126.49 51.7045C125.513 51.8409 124.626 51.9659 123.831 52.0795C122.126 52.3295 120.638 52.7273 119.365 53.2727C118.092 53.8182 117.104 54.5568 116.399 55.4886C115.694 56.3977 115.342 57.5341 115.342 58.8977C115.342 60.875 116.058 62.3864 117.49 63.4318C118.944 64.4545 120.785 64.9659 123.013 64.9659Z" fill="#FFBD14"/>
<path d="M150.969 74V21.6364H165.492V74H150.969ZM158.265 14.8864C156.106 14.8864 154.253 14.1705 152.708 12.7386C151.185 11.2841 150.424 9.54545 150.424 7.52272C150.424 5.52272 151.185 3.80682 152.708 2.375C154.253 0.920452 156.106 0.193178 158.265 0.193178C160.424 0.193178 162.265 0.920452 163.787 2.375C165.333 3.80682 166.106 5.52272 166.106 7.52272C166.106 9.54545 165.333 11.2841 163.787 12.7386C162.265 14.1705 160.424 14.8864 158.265 14.8864Z" fill="#92C821"/>
</svg>
